# ProBuilder 5.1.1
# https://unity3d.com/unity/features/worldbuilding/probuilder
# 2025/2/26 16:37:05

mtllib ./Arch_fbx.mtl
o Arch_fbx

g Arch
v -486.9426 -1.588852 -270.9252
v -441.3426 -1.588852 -270.9252
v -486.9426 -1.588852 0
v -441.3426 -1.588852 0
v -365.207 296.9411 0
v -365.207 296.9411 -270.9252
v -342.407 251.3411 0
v -342.407 251.3411 -270.9252
v -121.7356 296.9411 0
v -121.7356 296.9411 -270.9252
v -144.5356 251.3411 0
v -144.5356 251.3411 -270.9252
v 0 -1.588882 0
v 0 -1.588882 -270.9252
v -45.60001 -1.588867 0
v -45.60001 -1.588867 -270.9252

vt -486.9426 -270.9252
vt -441.3426 -270.9252
vt -486.9426 0
vt -441.3426 0
vt 0 -185.3387
vt 0 137.0581
vt -270.9252 -185.3387
vt -270.9252 137.0581
vt 0 109.3387
vt 0 -162.2526
vt 270.9252 109.3387
vt 270.9252 -162.2526
vt 365.207 0
vt 121.7356 0
vt 365.207 -270.9252
vt 121.7356 -270.9252
vt -144.5357 0
vt -342.407 0
vt -144.5357 -270.9252
vt -342.407 -270.9252
vt 0 320.9256
vt 0 -1.471258
vt 270.9252 320.9256
vt 270.9252 -1.471258
vt 0 15.13154
vt 0 286.7228
vt -270.9252 15.13154
vt -270.9252 286.7228
vt -45.60001 -270.9252
vt 5.316758E-07 -270.9252
vt -45.60001 0
vt 5.316758E-07 0
vt 486.9426 -1.588852
vt 365.207 296.9411
vt 441.3426 -1.588852
vt 342.407 251.3411
vt -365.207 296.9411
vt -486.9426 -1.588852
vt -342.407 251.3411
vt -441.3426 -1.588852
vt 121.7356 296.9411
vt 144.5356 251.3411
vt -121.7356 296.9411
vt -144.5356 251.3411
vt 0 -1.588882
vt 45.60001 -1.588867
vt -45.60001 -1.588867

vn 0 -1 0
vn -0.9259706 0.3775957 0
vn -0.557855 0.8299384 0
vn 0.56379 -0.8259182 0
vn 0.9312889 -0.3642814 0
vn 0.557855 0.8299384 0
vn 0.9259706 0.3775957 0
vn -0.931289 -0.3642814 0
vn 0 0 -1
vn 0 0 1

usemtl ArchMaterial
f 1/1/1 2/2/1 4/4/1 3/3/1
f 3/5/2 5/6/3 6/8/3 1/7/2
f 7/9/4 4/10/5 2/12/5 8/11/4
f 5/13/3 9/14/6 10/16/6 6/15/3
f 11/17/1 7/18/4 8/20/4 12/19/1
f 9/21/6 13/22/7 14/24/7 10/23/6
f 15/25/8 11/26/8 12/28/8 16/27/8
f 16/29/1 14/30/1 13/32/1 15/31/1
f 1/33/9 6/34/9 8/36/9 2/35/9
f 5/37/10 3/38/10 4/40/10 7/39/10
f 6/34/9 10/41/9 12/42/9 8/36/9
f 9/43/10 5/37/10 7/39/10 11/44/10
f 10/41/9 14/45/9 16/46/9 12/42/9
f 13/45/10 9/43/10 11/44/10 15/47/10

